# xmcd
#
# Track frame offsets:
#	150
#	16267
#	32412
#	49084
#	65877
#	84835
#	104485
#	127195
#	142310
#	164660
#	178440
#	200673
#	218316
#	231741
#	248193
#	263468
#	295113
#
# Disc length: 3948 seconds
#
# Revision: 1
# Processed by: cddbd v1.5.1PL0 Copyright (c) Steve Scherf et al.
# Submitted via: audiograbber 1.83.01
#
DISCID=060f6a11
DTITLE=Karaoke - MH015
DYEAR=1900
DGENRE=Male Country
TTITLE0=Keith, Toby - How Do You Like Me Now?!
TTITLE1=Holy, Steve - Good Morning Beautiful
TTITLE2=Strait, George  - Living and Living Well
TTITLE3=Diamond Rio - One More Day
TTITLE4=Lonestar - I'm Already There
TTITLE5=Jackson, Alan - Where I Come From
TTITLE6=Nickel Creek - Lighthouse's Tale, The
TTITLE7=Paisley,  Brad - I'm Gonna Miss Her (The Fishin' Song)
TTITLE8=Jackson, Alan - Where Were You (When The World Stopped Turning)
TTITLE9=Keith, Toby - I Wanna Talk About Me
TTITLE10=Brooks, Garth - Wrapped Up In You
TTITLE11=Flatts, Rascal - I'm Movin' On
TTITLE12=Tippin, Aaron - Kiss This
TTITLE13=McGraw, Tim - My Next Thirty Years
TTITLE14=Brooks and Dunn - Ain't Nothing 'Bout You
TTITLE15=Chesney, Kenny - She Thinks My Tractor's Sexy
TTITLE16=Data Track
EXTD=
EXTT0=
EXTT1=
EXTT2=
EXTT3=
EXTT4=
EXTT5=
EXTT6=
EXTT7=
EXTT8=
EXTT9=
EXTT10=
EXTT11=
EXTT12=
EXTT13=
EXTT14=
EXTT15=
EXTT16=
PLAYORDER=
